<?xml version="1.0" encoding="utf-8"?>
<!-- Generator: Adobe Illustrator 19.0.1, SVG Export Plug-In . SVG Version: 6.00 Build 0)  -->
<svg version="1.0"
	 id="svg2" inkscape:export-ydpi="109.33035" inkscape:version="0.48.4 r9939" sodipodi:docname="icon.svg" inkscape:export-xdpi="109.33035" inkscape:export-filename="/home/joshua/Pictures/icon.jpg.png" xmlns:sodipodi="http://sodipodi.sourceforge.net/DTD/sodipodi-0.dtd" xmlns:rdf="http://www.w3.org/1999/02/22-rdf-syntax-ns#" xmlns:cc="http://creativecommons.org/ns#" xmlns:svg="http://www.w3.org/2000/svg" xmlns:inkscape="http://www.inkscape.org/namespaces/inkscape" xmlns:dc="http://purl.org/dc/elements/1.1/"
	 xmlns="http://www.w3.org/2000/svg" xmlns:xlink="http://www.w3.org/1999/xlink" x="0px" y="0px" viewBox="-255 129 512 512"
	 style="enable-background:new -255 129 512 512;" xml:space="preserve">
<style type="text/css">
	.st0{opacity:0.96;fill:none;stroke:#24AFC4;stroke-width:31.4529;stroke-opacity:0.5333;enable-background:new    ;}
	.st1{fill:none;stroke:#24AFC4;stroke-width:34;}
	.st2{fill:#595959;}
	.st3{fill:#00CC00;}
</style>
<sodipodi:namedview  inkscape:window-width="1600" inkscape:current-layer="g4234" inkscape:pageopacity="0.0" inkscape:document-units="px" inkscape:pageshadow="2" inkscape:window-y="27" inkscape:window-x="0" inkscape:window-maximized="1" inkscape:window-height="846" id="base" bordercolor="#666666" inkscape:zoom="0.7" showgrid="false" inkscape:cx="84.961554" pagecolor="#ffffff" borderopacity="1.0" inkscape:cy="326.00319">
	</sodipodi:namedview>
<g id="g4234" transform="translate(1.4415405,-0.4314264)">
	
		<path id="path4148" sodipodi:ry="183.34268" sodipodi:type="arc" sodipodi:cx="240.92139" sodipodi:cy="227.64206" sodipodi:rx="183.34268" class="st0" d="
		M197.7,385.4c0,109.5-88.7,198.2-198.2,198.2s-198.2-88.7-198.2-198.2s88.7-198.2,198.2-198.2S197.7,276,197.7,385.4z"/>
	<g id="g6983">
		<path id="path6981" inkscape:connector-curvature="0" class="st1" d="M24.6,188.8c97.6,12.3,173.2,95.6,173.2,196.6l0,0l0,0
			c0,101-75.5,184.3-173.2,196.6"/>
		<path id="path6977" inkscape:connector-curvature="0" class="st1" d="M-25.5,582.1c-97.6-12.3-173.2-95.6-173.2-196.6
			s75.5-184.3,173.2-196.6"/>
	</g>
</g>
<g id="Ebene_2_Kopie">
	<g>
		<path class="st2" d="M-155.5,490H-174V280h19.3v-16.2h15.7V245h105v19.6h17.9V280H1v210h-18.8v14.8H-34V525h-105v-16.8h-16.5V490z
			 M-34,490V280h-105v210H-34z"/>
		<path class="st3" d="M36,490h35V315H36v-35h35v-35h70.3v245h35v35H36V490z"/>
	</g>
</g>
</svg>
