<?xml version="1.0"?>
<svg width="512" height="512" xmlns="http://www.w3.org/2000/svg">
 <style type="text/css">.st0{fill:none;}
	.st1{fill:#A0A0A0;stroke:#7F0000;stroke-width:20;}
	.st2{enable-background:new    ;}
	.st3{fill:#00FF00;}</style>

 <g>
  <title>background</title>
  <rect height="514" width="514" class="st0" y="128" x="-256" id="canvas_background"/>
 </g>
 <title>Layer 1</title>
 <g>
  <title>Layer 1</title>
  <rect height="492" width="494" class="st1" y="10" x="9" id="svg_9"/>
  <g class="st2" id="svg_5">
   <path id="svg_1" d="m242,164.899994c13,22.700012 19.5,54.899994 19.5,96.700012c0,41.799988 -6.5,74 -19.5,96.599976c-13,22.600006 -35.600006,33.899994 -67.800003,33.899994c-32.199997,0 -54.900009,-11.299988 -67.800003,-33.899994c-13,-22.600006 -19.5,-54.799988 -19.5,-96.599976c0,-41.800018 6.5,-74 19.5,-96.700012c13,-22.700012 35.600006,-34 67.800003,-34c32.199997,0 54.800003,11.300018 67.800003,34zm-97.199997,163.5c4.800003,15.399994 14.5,23.100006 29.300003,23.100006c14.799988,0 24.5,-7.700012 29.100006,-23.100006c4.599991,-15.399994 6.899994,-37.700012 6.899994,-66.799988c0,-30.5 -2.300003,-53.100006 -6.899994,-67.700012c-4.600006,-14.700012 -14.300018,-22 -29.100006,-22c-14.800003,0 -24.600006,7.299988 -29.300003,22c-4.800003,14.700012 -7.199997,37.299988 -7.199997,67.700012c0,29.199982 2.399994,51.399994 7.199997,66.799988z"/>
  </g>
  <g class="st2" id="svg_4">
   <path id="svg_2" d="m297.799988,211.200012l0,-33.899994c15.700012,-0.700012 26.600006,-1.700012 32.900024,-3.100006c10,-2.200012 18.099976,-6.600006 24.399994,-13.299988c4.299988,-4.5 7.5,-10.600006 9.799988,-18.200012c1.300018,-4.5 1.899994,-7.899994 1.899994,-10.100006l41.600006,0l0,253.199982l-51,0l0,-174.599976l-59.600006,0z" class="st3"/>
  </g>
 </g>
</svg>