<?xml version="1.0" encoding="utf-8"?>
<!-- Generator: Adobe Illustrator 19.0.1, SVG Export Plug-In . SVG Version: 6.00 Build 0)  -->
<svg version="1.1" id="Ebene_1" xmlns="http://www.w3.org/2000/svg" xmlns:xlink="http://www.w3.org/1999/xlink" x="0px" y="0px"
	 viewBox="-255 129 512 512" style="enable-background:new -255 129 512 512;" xml:space="preserve">
<style type="text/css">
	.st0{fill:none;}
	.st1{fill:#A0A0A0;stroke:#7F0000;stroke-width:20;}
	.st2{enable-background:new    ;}
	.st3{fill:#00FF00;}
</style>
<g>
	<title>background</title>
	<rect id="canvas_background" x="-256" y="128" class="st0" width="514" height="514"/>
</g>
<title>Layer 1</title>
<rect id="svg_9" x="-246" y="139" class="st1" width="494" height="492"/>
<g id="svg_5" class="st2">
	<path d="M-13,293.9c13,22.7,19.5,54.9,19.5,96.7c0,41.8-6.5,74-19.5,96.6c-13,22.6-35.6,33.9-67.8,33.9
		c-32.2,0-54.9-11.3-67.8-33.9c-13-22.6-19.5-54.8-19.5-96.6c0-41.8,6.5-74,19.5-96.7c13-22.7,35.6-34,67.8-34
		C-48.6,259.9-26,271.2-13,293.9z M-110.2,457.4c4.8,15.4,14.5,23.1,29.3,23.1c14.8,0,24.5-7.7,29.1-23.1
		c4.6-15.4,6.9-37.7,6.9-66.8c0-30.5-2.3-53.1-6.9-67.7c-4.6-14.7-14.3-22-29.1-22c-14.8,0-24.6,7.3-29.3,22
		c-4.8,14.7-7.2,37.3-7.2,67.7C-117.4,419.8-115,442-110.2,457.4z"/>
</g>
<g id="svg_4" class="st2">
	<path class="st3" d="M42.8,340.2v-33.9c15.7-0.7,26.6-1.7,32.9-3.1c10-2.2,18.1-6.6,24.4-13.3c4.3-4.5,7.5-10.6,9.8-18.2
		c1.3-4.5,1.9-7.9,1.9-10.1h41.6v253.2h-51V340.2H42.8z"/>
</g>
</svg>
